<?xml version="1.0" encoding="utf-8"?>
<!-- Generator: Adobe Illustrator 16.0.4, SVG Export Plug-In . SVG Version: 6.00 Build 0)  -->
<!DOCTYPE svg PUBLIC "-//W3C//DTD SVG 1.1//EN" "http://www.w3.org/Graphics/SVG/1.1/DTD/svg11.dtd">
<svg version="1.1" id="Layer_1" xmlns="http://www.w3.org/2000/svg" xmlns:xlink="http://www.w3.org/1999/xlink" x="0px" y="0px"
	 width="736.748px" height="626.121px" viewBox="0 0 736.748 626.121" enable-background="new 0 0 736.748 626.121"
	 xml:space="preserve">
<polygon fill="#3167AF" points="427.4,0 427.4,154.674 0,154.674 0,309.348 0.001,309.348 309.349,618.695 309.349,464.021 
	736.748,464.021 736.748,309.348 "/>
<polyline fill="#204977" points="309.349,618.695 309.349,464.021 736.748,464.021 736.748,309.348 0.001,309.348 "/>
<g>
	<path fill="#FFFFFF" d="M121.717,396.734V223.716h48.892c9.493,0,18.157,1.268,25.989,3.797
		c7.832,2.533,14.477,6.171,19.936,10.917c5.459,4.747,9.69,10.603,12.697,17.563c3.004,6.964,4.51,14.796,4.51,23.496
		c0,4.747-0.475,9.493-1.424,14.24s-2.455,9.338-4.51,13.766c-2.058,4.432-4.746,8.507-8.069,12.223
		c-3.322,3.72-7.279,6.924-11.866,9.612c3.478,5.54,6.882,10.958,10.205,16.257c3.322,5.304,6.683,10.644,10.087,16.021
		c3.4,5.381,6.92,10.918,10.562,16.613c3.638,5.696,7.595,11.867,11.866,18.513h-34.888c-7.12-11.073-13.848-21.557-20.174-31.447
		c-6.33-9.887-12.423-19.261-18.275-28.124h-2.374h-24.208v59.571H121.717z M150.672,309.869h23.259
		c6.011,0,10.995-1.027,14.952-3.085c3.953-2.055,7.12-4.547,9.493-7.477c2.374-2.926,4.035-6.089,4.984-9.493
		c0.949-3.4,1.424-6.527,1.424-9.375c0-2.688-0.438-5.733-1.306-9.138c-0.871-3.4-2.454-6.604-4.746-9.612
		c-2.296-3.003-5.422-5.536-9.375-7.595c-3.957-2.054-9.019-3.085-15.189-3.085h-23.497V309.869z"/>
	<path fill="#FFFFFF" d="M277.407,396.734V223.716h114.87v26.344h-85.915v46.518h76.422v27.057h-76.422v46.043h89.238v27.057
		H277.407z"/>
	<path display="none" fill="#FFFFFF" d="M462.053,301.8c0,0.319,0.155,1.187,0.475,2.61c0.314,1.425,0.475,2.771,0.475,4.035v88.289
		H433.81V216.121c0.79,1.109,86.942,120.093,87.577,121.042c0.315-0.475,86.546-119.933,87.34-121.042v180.613h-31.092v-88.289
		c0-1.265,0.156-2.61,0.476-4.035c0.314-1.424,0.475-2.291,0.475-2.61l-57.198,82.355"/>
</g>
<g display="none">
	<path display="inline" fill="#FFFFFF" d="M1295.793,491.285V318.268h64.437c9.492,0,18.156,1.268,25.988,3.797
		c7.832,2.533,14.477,6.171,19.936,10.917c5.459,4.747,9.69,10.603,12.697,17.563c3.004,6.964,4.51,14.796,4.51,23.496
		c0,4.747-0.475,9.493-1.424,14.24s-2.455,9.338-4.51,13.766c-2.058,4.432-4.746,8.507-8.069,12.223
		c-3.322,3.72-7.279,6.924-11.866,9.612c3.478,5.54,6.882,10.958,10.205,16.257c3.322,5.304,6.683,10.644,10.087,16.021
		c3.4,5.381,6.92,10.918,10.562,16.613c3.638,5.696,7.595,11.867,11.866,18.513h-34.888c-7.12-11.073-13.848-21.557-20.174-31.447
		c-6.33-9.887-12.424-19.261-18.275-28.124h-2.373h-39.753v59.571H1295.793z M1324.748,404.42h38.804
		c6.012,0,10.995-1.027,14.952-3.085c3.953-2.055,7.12-4.547,9.493-7.477c2.374-2.926,4.035-6.089,4.984-9.493
		c0.949-3.4,1.424-6.527,1.424-9.375c0-2.688-0.438-5.733-1.306-9.138c-0.871-3.4-2.454-6.604-4.746-9.612
		c-2.296-3.003-5.422-5.536-9.375-7.595c-3.957-2.054-9.019-3.085-15.189-3.085h-39.041V404.42z"/>
	<path display="inline" fill="#FFFFFF" d="M1139.391,283.268V110.25h114.87v26.344h-85.915v46.518h76.422v27.057h-76.422v46.043
		h89.238v27.057H1139.391z"/>
	<path display="inline" fill="#FFFFFF" d="M1295.793,102.654c0.79,1.109,71.574,93.155,72.209,94.104
		c0.315-0.475,71.415-92.995,72.209-94.104v180.613h-31.092v-88.289c0-1.265-0.006-5.067-0.006-5.387l-41.111,54.159
		c-0.794-0.949-43.651-54.784-43.966-55.418c0,0.319,0.949,5.381,0.949,6.646v88.289h-29.192V102.654z"/>
</g>
<path fill="#FFFFFF" d="M462.053,309.348c0,0.319,0.155,1.187,0.475,2.61c0.314,1.425,0.475,2.771,0.475,4.035v80.741H433.81
	V216.121c0.79,1.109,86.942,120.093,87.577,121.042c0.315-0.475,86.546-119.933,87.34-121.042v180.613h-31.092v-80.741
	c0-1.265,0.156-2.61,0.476-4.035c0.314-1.424,0.475-2.291,0.475-2.61l-57.198,82.355"/>
<g>
</g>
<g>
</g>
<g>
</g>
<g>
</g>
<g>
</g>
<g>
</g>
</svg>
